# xmcd
#
# Track frame offsets:
#	150
#	22050
#	36300
#	49050
#	66300
#	81900
#	94500
#	105375
#	123225
#	138975
#	153075
#	167625
#	187275
#	201825
#	218925
#	231150
#
# Disc length: 3259 seconds
#
# Revision: 1
# Processed by: cddbd v1.5PL3 Copyright (c) Steve Scherf et al.
# Submitted via: audiograbber 1.83.01
#
DISCID=df0cb910
DTITLE=Jonny Hill - Ruf Teddybär eins - vier
DYEAR=1900
DGENRE=Country
TTITLE0=Ruf Teddybär eins-vier
TTITLE1=Vielleicht bist auch du so allein
TTITLE2=Green green grass of home
TTITLE3=Rosen für Mama
TTITLE4=Und wieder zeigt dir einer einen Vogel
TTITLE5=500 Meilen von zu Haus
TTITLE6=Adios Amigo
TTITLE7=Träume, die hat jeder
TTITLE8=Nimm uns mit, Kapitän, auf die Reise
TTITLE9=Schön ist die Liebe im Hafen
TTITLE10=Die kleine Hafenkneipe
TTITLE11=Der alte Mann
TTITLE12=Ein Glas Wein und noch eins
TTITLE13=Addio, Santa Lucia
TTITLE14=Freunde
TTITLE15=Ich wollte dir noch so viel sagen
EXTD=
EXTT0=
EXTT1=
EXTT2=
EXTT3=
EXTT4=
EXTT5=
EXTT6=
EXTT7=
EXTT8=
EXTT9=
EXTT10=
EXTT11=
EXTT12=
EXTT13=
EXTT14=
EXTT15=
PLAYORDER=
